<?xml version="1.0" standalone="no"?><!DOCTYPE svg PUBLIC "-//W3C//DTD SVG 1.1//EN" "http://www.w3.org/Graphics/SVG/1.1/DTD/svg11.dtd"><svg t="1587280889261" class="icon" viewBox="0 0 1024 1024" version="1.1" xmlns="http://www.w3.org/2000/svg" p-id="1532" xmlns:xlink="http://www.w3.org/1999/xlink" width="64" height="64"><defs><style type="text/css"></style></defs><path d="M800 800h-640A32 32 0 0 1 128 768V128a32 32 0 0 1 64 0v608h608a32 32 0 0 1 0 64z" fill="#4D4D4D" p-id="1533"></path><path d="M672 992a30.08 30.08 0 0 1-22.4-9.6 30.72 30.72 0 0 1 0-44.8L818.56 768l-168.96-169.6a31.36 31.36 0 0 1 44.8-44.8l192 192a30.72 30.72 0 0 1 0 44.8l-192 192a30.08 30.08 0 0 1-22.4 9.6z" fill="#4D4D4D" p-id="1534"></path></svg>